<?xml version="1.0" encoding="utf-8"?>
<!-- Generator: Adobe Illustrator 15.1.0, SVG Export Plug-In . SVG Version: 6.00 Build 0)  -->
<!DOCTYPE svg PUBLIC "-//W3C//DTD SVG 1.1//EN" "http://www.w3.org/Graphics/SVG/1.1/DTD/svg11.dtd">
<svg version="1.1" id="Layer_1" xmlns="http://www.w3.org/2000/svg" xmlns:xlink="http://www.w3.org/1999/xlink" x="0px" y="0px"
	 width="32px" height="32px" viewBox="0 0 32 32" enable-background="new 0 0 32 32" xml:space="preserve">
<g>
	<g>
		<g>
			<rect x="3.5" y="10.5" fill="#9C9C9C" width="7" height="2"/>
		</g>
		<g>
			<path fill="#9C9C9C" d="M27.5,18.5h-15v-8h15V18.5z M14.5,16.5h11v-4h-11V16.5z"/>
		</g>
		<rect x="2.5" y="6.5" fill="#9C9C9C" width="3" height="2"/>
		<rect x="6.5" y="6.5" fill="#9C9C9C" width="3" height="2"/>
		<rect x="10.5" y="6.5" fill="#9C9C9C" width="3" height="2"/>
		<rect x="14.5" y="6.5" fill="#9C9C9C" width="3" height="2"/>
		<rect x="18.5" y="6.5" fill="#9C9C9C" width="3" height="2"/>
		<rect x="22.5" y="6.5" fill="#9C9C9C" width="3" height="2"/>
		<rect x="26.5" y="6.5" fill="#9C9C9C" width="2" height="2"/>
		<rect x="25.5" y="20.5" fill="#9C9C9C" width="3" height="2"/>
		<rect x="21.5" y="20.5" fill="#9C9C9C" width="3" height="2"/>
		<rect x="17.5" y="20.5" fill="#9C9C9C" width="3" height="2"/>
		<rect x="13.5" y="20.5" fill="#9C9C9C" width="3" height="2"/>
		<rect x="9.5" y="20.5" fill="#9C9C9C" width="3" height="2"/>
		<rect x="5.5" y="20.5" fill="#9C9C9C" width="3" height="2"/>
		<rect x="2.5" y="20.5" fill="#9C9C9C" width="2" height="2"/>
	</g>
	<g>
		<path fill="#9C9C9C" d="M31.5,31.5h-32v-32h32V31.5z M1.5,29.5h28v-28h-28V29.5z"/>
	</g>
</g>
</svg>
